<?xml version="1.0" encoding="utf-8"?>
<!-- Generator: Adobe Illustrator 22.1.0, SVG Export Plug-In . SVG Version: 6.00 Build 0)  -->
<svg version="1.1" id="Layer_1" xmlns="http://www.w3.org/2000/svg" xmlns:xlink="http://www.w3.org/1999/xlink" x="0px" y="0px"
	 viewBox="0 0 650.4 331.4" style="enable-background:new 0 0 650.4 331.4;" xml:space="preserve">
<style type="text/css">
	.st0{fill:url(#SVGID_1_);}
	.st1{fill:url(#SVGID_2_);}
	.st2{fill:url(#SVGID_3_);}
	.st3{fill:url(#SVGID_4_);}
	.st4{fill:url(#SVGID_5_);}
	.st5{fill:#DADADA;}
	.st6{fill:url(#SVGID_6_);}
	.st7{fill:url(#SVGID_7_);}
	.st8{fill:url(#SVGID_8_);}
</style>
<g>
	<g>
		<linearGradient id="SVGID_1_" gradientUnits="userSpaceOnUse" x1="540.3314" y1="85.3196" x2="574.6179" y2="179.5207">
			<stop  offset="0" style="stop-color:#EDEDED"/>
			<stop  offset="1" style="stop-color:#DADADA"/>
		</linearGradient>
		<path class="st0" d="M523.6,197.2c0.6-0.1,1.2-0.2,1.8-0.4c7.7-1.7,15-4.7,21.7-8.6c6.7-3.9,12.7-8.6,18-13.9
			c7.4-7.3,13.6-15.5,18.7-24.3c5.1-8.7,9.2-18,12.4-27.4c4.9-14.4,7.6-29.4,8.6-44.4c0.2-3.4-0.8-6.5-2.5-8.8
			c-1.7-2.2-4.2-3.6-6.9-3.6c-2.7,0-5.1,1.3-6.9,3.3c-1.8,2-3,4.7-3.2,7.8l-0.1,1.5c-1,13-3.4,25.8-7.6,38
			c-2.8,8.3-6.4,16.3-10.7,23.8c-4.4,7.4-9.5,14.3-15.5,20.2c-4.5,4.4-9.4,8.3-14.7,11.3c-5.3,3-11,5.2-16.8,6.3
			c-2.6,0.5-4.9,1.9-6.7,3.7c-1.8,1.9-3,4.3-3,7c0,2.7,1.4,5.1,3.8,6.8C516.4,197.1,520,197.9,523.6,197.2z"/>
	</g>
	<g>
		<linearGradient id="SVGID_2_" gradientUnits="userSpaceOnUse" x1="523.1356" y1="138.8443" x2="617.842" y2="138.8443">
			<stop  offset="0" style="stop-color:#EDEDED"/>
			<stop  offset="0.7212" style="stop-color:#FFFFFF"/>
			<stop  offset="0.8788" style="stop-color:#FFFFFF"/>
		</linearGradient>
		<path class="st1" d="M536.7,204.4c0.6-0.1,1.2-0.2,1.8-0.4c7.7-1.7,15-4.7,21.7-8.6c6.7-3.9,12.7-8.6,18-13.9
			c7.4-7.3,13.6-15.5,18.7-24.3c5.1-8.7,9.2-18,12.4-27.4c4.9-14.4,7.6-29.4,8.6-44.4c0.2-3.4-0.8-6.5-2.5-8.8
			c-1.7-2.2-4.2-3.6-6.9-3.6c-2.7,0-5.1,1.3-6.9,3.3c-1.8,2-3,4.7-3.2,7.8l-0.1,1.5c-1,13-3.4,25.8-7.6,38
			c-2.8,8.3-6.4,16.3-10.7,23.8c-4.4,7.5-9.5,14.3-15.5,20.2c-4.5,4.4-9.4,8.3-14.7,11.3c-5.3,3-11,5.2-16.8,6.3
			c-2.6,0.5-4.9,1.9-6.7,3.7c-1.8,1.9-3,4.3-3,7c0,2.7,1.4,5.1,3.8,6.8C529.4,204.4,533,205.1,536.7,204.4z"/>
	</g>
	<g>
		<linearGradient id="SVGID_3_" gradientUnits="userSpaceOnUse" x1="542.8138" y1="97.3684" x2="606.1284" y2="97.3684">
			<stop  offset="0.3939" style="stop-color:#C6C6C6"/>
			<stop  offset="1" style="stop-color:#EDEDED"/>
		</linearGradient>
		<path class="st2" d="M561.1,140.6l0.7-1.1l43.1-75.7c2.7-4.7,1-10.7-3.6-13.4c-4.7-2.7-10.7-1-13.3,3.7l-0.7,1.1L544.1,131
			c-2.7,4.7-1.1,10.7,3.6,13.4C552.4,147,558.4,145.3,561.1,140.6z"/>
	</g>
	<linearGradient id="SVGID_4_" gradientUnits="userSpaceOnUse" x1="610.6216" y1="75.1963" x2="610.6216" y2="0">
		<stop  offset="0" style="stop-color:#EDEDED"/>
		<stop  offset="1" style="stop-color:#FFFFFF"/>
	</linearGradient>
	<path class="st3" d="M648.2,37.6c0,20.8-16.8,37.6-37.6,37.6c-20.8,0-37.6-16.8-37.6-37.6C573,16.8,589.9,0,610.6,0
		C631.4,0,648.2,16.8,648.2,37.6z"/>
	<linearGradient id="SVGID_5_" gradientUnits="userSpaceOnUse" x1="603.0206" y1="43.1072" x2="649.2323" y2="28.0921">
		<stop  offset="0" style="stop-color:#684696"/>
		<stop  offset="0.1936" style="stop-color:#754E9A"/>
		<stop  offset="0.5717" style="stop-color:#9664A7"/>
		<stop  offset="1" style="stop-color:#C085B9"/>
	</linearGradient>
	<path class="st4" d="M650.4,37.7c0-16.4-10.2-30.3-24.6-35.9c-23.3,13.6-21.9,43.7-21.9,43.7s11.7,16,34.6,20
		C645.8,58.5,650.4,48.6,650.4,37.7z"/>
	<path class="st5" d="M610.3,46.7c0,3.6-2.9,6.5-6.5,6.5c-3.6,0-6.5-2.9-6.5-6.5c0-3.6,2.9-6.5,6.5-6.5
		C607.4,40.2,610.3,43.1,610.3,46.7z"/>
	<linearGradient id="SVGID_6_" gradientUnits="userSpaceOnUse" x1="603.8066" y1="51.7627" x2="603.8066" y2="38.749">
		<stop  offset="0" style="stop-color:#EDEDED"/>
		<stop  offset="0.7212" style="stop-color:#FFFFFF"/>
		<stop  offset="0.8788" style="stop-color:#FFFFFF"/>
	</linearGradient>
	<path class="st6" d="M610.3,45.3c0,3.6-2.9,6.5-6.5,6.5c-3.6,0-6.5-2.9-6.5-6.5c0-3.6,2.9-6.5,6.5-6.5
		C607.4,38.7,610.3,41.7,610.3,45.3z"/>
	<g>
		<linearGradient id="SVGID_7_" gradientUnits="userSpaceOnUse" x1="-88.0779" y1="213.3244" x2="582.8952" y2="213.3244">
			<stop  offset="0" style="stop-color:#DADADA"/>
			<stop  offset="1" style="stop-color:#EDEDED"/>
		</linearGradient>
		<path class="st7" d="M581.9,95.9c-1.4-1.1-3.5-0.8-4.9,0.6l-0.3,0.3c-1.9,1.9-4,3.7-6.2,5.3c-1.1,0.8-2.2,1.6-3.4,2.4l-0.4,0.3
			l-0.1,0l-1.4,0.9l-1.5,0.9c-1,0.6-2.1,1.2-3.1,1.8c-4.2,2.3-8.6,4.3-13,6c-8.9,3.6-18.2,6.3-27.7,8.4c-9.4,2.1-19.1,3.4-28.8,4.5
			c-9.7,1.1-19.5,1.8-29.3,2.5c-19.6,1.4-39.2,2.4-58.9,3.9c-19.6,1.4-39.3,3.3-58.9,6c-4.9,0.7-9.8,1.4-14.7,2.3
			c-4.9,0.9-9.7,2-14.6,3.1c-9.7,2.3-19.2,5-28.6,7.9c-18.9,5.9-37.4,12.7-55.6,20.5c-9.1,3.9-18.1,8-27,12.4
			c-8.9,4.4-17.6,9.1-26.1,14.3c-4.2,2.6-8.4,5.3-12.5,8.3c-4.1,2.9-8,6.1-11.8,9.6c-1.9,1.8-3.6,3.7-5.3,5.8
			c-1.6,2.1-3.2,4.4-4.2,7.1c-0.3,0.7-0.5,1.3-0.7,1.9c-0.2,0.6-0.4,1.3-0.6,1.9c-0.3,1.3-0.6,2.5-0.9,3.8c-0.5,2.6-0.8,5.1-1.1,7.7
			c-0.9,10.2,0.1,20-1,29.4c-0.5,4.7-1.5,9.2-3.3,13.4c-0.9,2.1-1.9,4.1-3.1,6.1c-1.2,2-2.5,3.9-4,5.7c-5.8,7.2-13.7,12.6-22.4,16.1
			c-8.7,3.6-18.1,5.6-27.7,6.7c-9.6,1.1-19.3,1.3-29.1,1.2l-29.5,0c-6.8,0-13.6-0.1-20.4-0.3c0,1.8,0,3.7,0,5.5c0,0.1,0,0.5,0,1
			c6.2,0.2,12.3,0.3,18.5,0.3c9.9,0.1,19.7,0,29.5,0c4.9,0,9.9,0,14.8-0.1c5-0.1,10-0.4,15-1c10-1,20-2.9,29.5-6.6
			c4.8-1.8,9.4-4.1,13.7-7c4.3-2.9,8.3-6.3,11.8-10.2c1.7-2,3.3-4,4.7-6.2c0.7-1.1,1.4-2.2,2-3.3c0.7-1.1,1.3-2.3,1.8-3.5
			c2.2-4.8,3.6-9.9,4.3-15.1c1.4-10.3,0.4-20.2,1.1-29.7c0.3-4.7,1-9.4,2.4-13.7l0.3-0.8c0.1-0.3,0.2-0.5,0.3-0.7
			c0.2-0.5,0.4-0.9,0.6-1.4c0.5-0.9,1-1.8,1.7-2.7c1.3-1.8,2.8-3.5,4.4-5.2c3.3-3.3,7-6.3,10.8-9.2c3.9-2.9,7.9-5.5,12-8.1
			c8.2-5.1,16.8-9.8,25.5-14.2c8.7-4.4,17.6-8.5,26.6-12.4c18-7.7,36.3-14.6,54.9-20.4c9.3-2.9,18.7-5.6,28.2-7.9
			c4.7-1.1,9.5-2.2,14.3-3.1c4.8-0.9,9.5-1.7,14.4-2.4c19.4-2.8,38.9-4.6,58.4-6.1c19.6-1.5,39.2-2.5,58.8-3.9
			c9.8-0.7,19.7-1.4,29.5-2.5c9.8-1,19.7-2.3,29.5-4.4c9.8-2.1,19.4-4.8,28.8-8.4c4.7-1.8,9.3-3.8,13.8-6.2c2.2-1.2,4.5-2.4,6.6-3.7
			l1.6-1l0.9-0.6c1.2-0.8,2.5-1.7,3.7-2.6c2.4-1.8,4.7-3.8,6.9-6C583.2,99.4,583.3,97,581.9,95.9z"/>
	</g>
	<g>
		<linearGradient id="SVGID_8_" gradientUnits="userSpaceOnUse" x1="588.1789" y1="109.0983" x2="569.4393" y2="99.1342">
			<stop  offset="0.1212" style="stop-color:#FFFFFF"/>
			<stop  offset="0.2788" style="stop-color:#FFFFFF"/>
			<stop  offset="1" style="stop-color:#EDEDED"/>
		</linearGradient>
		<path class="st8" d="M567.8,143.8l0.6-1L606.8,74c2.4-4.3,0.5-9.9-4.2-12.5c-4.7-2.6-10.5-1.3-12.9,3l-0.6,1l-38.5,68.8
			c-2.4,4.3-0.5,9.9,4.2,12.5C559.6,149.4,565.4,148,567.8,143.8z"/>
	</g>
</g>
</svg>
